<svg xmlns="http://www.w3.org/2000/svg" width="40" height="40" viewBox="8 15 24 10" version="1.1">
  <path d="M8.733 19.567V26.8h3.867V18.925l0.193 0.021c0.169 0.018 0.566 0.506 3.205 3.938L19.01 26.8H22.8V12.333h-4v7.667h-0.186c-0.167 0 -0.471 -0.377 -3.083 -3.829L12.633 12.341l-1.95 -0.004L8.733 12.333z" stroke="none" fill="#fc7c34" fill-rule="evenodd" stroke-width="0.06666666666666667"/>
  <path d="M28.399 12.75c-1.09 4.241 -2.117 5.515 -4.449 5.516L22.8 18.267v2.067l1.217 0.003 1.217 0.003 0.844 1.714c0.956 1.942 1.633 3.112 2.363 4.08L28.942 26.8H31.4v-0.298c0 -0.27 -0.048 -0.359 -0.511 -0.95 -1.138 -1.451 -2.155 -3.195 -3.014 -5.171 -0.483 -1.111 -0.475 -1.248 0.093 -1.669 0.89 -0.659 1.661 -1.844 2.334 -3.588 0.226 -0.586 0.765 -2.393 0.765 -2.563 0 -0.077 -0.226 -0.094 -1.297 -0.094h-1.297z" stroke="none" fill="#fcfcfc" fill-rule="evenodd" stroke-width="0.06666666666666667"/>
</svg>
