<?xml version="1.0" encoding="UTF-8"?>
<!DOCTYPE svg PUBLIC "-//W3C//DTD SVG 1.1//EN" "http://www.w3.org/Graphics/SVG/1.1/DTD/svg11.dtd">
<svg 
  xmlns="http://www.w3.org/2000/svg" 
  version="1.1" 
  width="612px" 
  height="436px" 
  style="shape-rendering:geometricPrecision; text-rendering:geometricPrecision; image-rendering:optimizeQuality; fill-rule:evenodd; clip-rule:evenodd" 
  xmlns:xlink="http://www.w3.org/1999/xlink"
>
<g><path id='svgBackground' style="opacity:1" fill="none" d="M -0.5,-0.5 C 203.5,-0.5 407.5,-0.5 611.5,-0.5C 611.5,144.833 611.5,290.167 611.5,435.5C 407.5,435.5 203.5,435.5 -0.5,435.5C -0.5,290.167 -0.5,144.833 -0.5,-0.5 Z"/></g>
<g><path style="opacity:1" fill="none" d="M 458.5,42.5 C 483.836,42.3334 509.169,42.5 534.5,43C 507.083,82.5007 480.416,122.501 454.5,163C 487.295,234.257 520.628,305.257 554.5,376C 525.828,376.833 497.161,376.667 468.5,375.5C 446.59,328.015 424.424,280.682 402,233.5C 385.913,257.341 369.58,281.007 353,304.5C 352.333,269.5 352.333,234.5 353,199.5C 387.997,147.012 423.163,94.6792 458.5,42.5 Z"/></g>
<g><path style="opacity:1" fill="none" d="M 76.5,43.5 C 104.841,43.1669 133.175,43.5002 161.5,44.5C 196.467,105.296 231.634,165.963 267,226.5C 267.833,276.503 267.667,326.503 266.5,376.5C 223.667,302.833 180.833,229.167 138,155.5C 137.5,229.166 137.333,302.833 137.5,376.5C 117.167,376.5 96.8333,376.5 76.5,376.5C 76.5,265.5 76.5,154.5 76.5,43.5 Z"/></g>
<g><path style="opacity:1" fill="none" d="M 280.5,43.5 C 300.5,43.5 320.5,43.5 340.5,43.5C 340.5,154.5 340.5,265.5 340.5,376.5C 320.5,376.5 300.5,376.5 280.5,376.5C 280.5,265.5 280.5,154.5 280.5,43.5 Z"/></g>
<g><path style="opacity:1" fill="#FFF" d="M 459.5,44.5 C 483.169,44.3334 506.836,44.5 530.5,45C 504.043,84.0804 477.709,123.247 451.5,162.5C 484.705,233.076 518.038,303.576 551.5,374C 524.5,374.667 497.5,374.667 470.5,374C 447.926,326.106 425.26,278.273 402.5,230.5C 386.433,252.954 370.6,275.621 355,298.5C 354.333,265.5 354.333,232.5 355,199.5C 389.843,147.805 424.677,96.138 459.5,44.5 Z"/></g>
<g><path style="opacity:1" fill="#FFF" d="M 78.5,45.5 C 105.841,45.1669 133.175,45.5002 160.5,46.5C 195.081,106.664 229.914,166.664 265,226.5C 265.667,274.5 265.667,322.5 265,370.5C 221.747,296.33 178.747,221.997 136,147.5C 135.5,223.166 135.333,298.833 135.5,374.5C 116.5,374.5 97.5,374.5 78.5,374.5C 78.5,264.833 78.5,155.167 78.5,45.5 Z"/></g>
<g><path style="opacity:1" fill="hsl(39, 100.00%, 70.40%)" d="M 282.5,45.5 C 301.167,45.5 319.833,45.5 338.5,45.5C 338.5,155.167 338.5,264.833 338.5,374.5C 319.833,374.5 301.167,374.5 282.5,374.5C 282.5,264.833 282.5,155.167 282.5,45.5 Z"/></g>
</svg>
