<svg xmlns="http://www.w3.org/2000/svg" width="306" height="218" style="shape-rendering:geometricPrecision;text-rendering:geometricPrecision;image-rendering:optimizeQuality;fill-rule:evenodd;clip-rule:evenodd" viewBox="0 0 306 218">
  <path style="opacity:1" fill="none" d="M-.25-.25h306v218h-306z"/>
  <path style="opacity:1" fill="none" d="M229.25 21.25q19.002-.125 38 .25a1924 1924 0 0 0-40 60 7733 7733 0 0 0 50 106.5q-21.504.625-43-.25a6899 6899 0 0 0-33.25-71 2056 2056 0 0 1-24.5 35.5q-.5-26.25 0-52.5a13123 13123 0 0 1 52.75-78.5m-191 .5q21.256-.25 42.5.5a15525 15525 0 0 0 52.75 91 1875 1875 0 0 1-.25 75L69 77.75q-.375 55.25-.25 110.5h-30.5zm102 0h30v166.5h-30z"/>
  <path style="opacity:1" fill="#FFF" d="M229.75 22.25q17.752-.125 35.5.25a11060 11060 0 0 0-39.5 58.75 30682 30682 0 0 0 50 105.75q-20.25.5-40.5 0a19112 19112 0 0 0-34-71.75 1831 1831 0 0 0-23.75 34q-.5-24.75 0-49.5a381151 381151 0 0 1 52.25-77.5m-190.5.5q20.506-.25 41 .5a12005 12005 0 0 0 52.25 90q.5 36 0 72A18383 18383 0 0 1 68 73.75q-.375 56.75-.25 113.5h-28.5z"/>
  <path style="opacity:1" fill="hsl(39, 100.00%, 70.40%)" d="M141.25 22.75h28v164.5h-28z"/>
</svg>